<?xml version="1.0" encoding="UTF-8"?>
<svg width="752pt" height="752pt" version="1.1" viewBox="0 0 752 752" xmlns="http://www.w3.org/2000/svg">
 <defs>
  <clipPath id="b">
   <path d="m225 311h74v301.79h-74z"/>
  </clipPath>
  <clipPath id="a">
   <path d="m288 139.21h117v102.79h-117z"/>
  </clipPath>
 </defs>
 <path d="m309.65 281.35c2.543-3.4062 6.2578-5.6211 10.461-6.2305 0.76172-0.10938 1.5391-0.16406 2.3047-0.16406 7.8359 0 14.598 5.8555 15.727 13.617l4.6172 31.727c7.0625-4.8789 12.398-12.301 14.5-21.32 4.4844-19.25-7.4883-38.488-26.742-42.973-19.25-4.4844-38.492 7.4883-42.977 26.738-4.2422 18.223 6.2656 36.434 23.73 42.125l-4.6133-31.715c-0.61328-4.207 0.44922-8.3984 2.9922-11.805z"/>
 <g clip-path="url(#b)">
  <path d="m249.98 454.64c4.0508 13.344 9.1055 35.309 9.0664 61.664-0.003906 21.031-3.1484 44.824-12.352 69.691-3.8125 10.297 1.4414 21.742 11.746 25.555 2.2773 0.84375 4.6094 1.2461 6.9102 1.2461 8.0781 0 15.68-4.9648 18.652-12.988 11.062-29.883 14.828-58.512 14.824-83.5-0.050781-39.848-9.4062-70.504-14.461-84.223-3.1367-23.438 2.0898-50.219 6.3906-71.418l-22.219-2.9062c-4.2148-0.55078-7.9609-2.7109-10.555-6.0781-2.5898-3.3711-3.7148-7.5469-3.1602-11.762 1.0352-7.8945 7.8086-13.848 15.758-13.848 0.69141 0 1.3906 0.046876 2.082 0.13672l20.113 2.6289c-2.3945-8.1094-7.543-14.617-14.969-16.469-13.582-3.3867-33.273 3.9922-41.281 27.285-10.828 32.098-13.156 52.988-9.0391 88.336 3.3516 17.293 12.449 24.102 22.492 26.648z"/>
 </g>
 <path d="m257.98 340.33c-0.91406 6.9688 4.0039 13.359 10.977 14.27h-0.007813l60.402 7.8984c0.55859 0.074218 1.1094 0.10938 1.6641 0.10938 3.3828 0 6.6406-1.3477 9.0547-3.793 2.8047-2.8477 4.1055-6.8164 3.5273-10.766l-8.5898-59.016c-1.0117-6.957-7.4727-11.773-14.426-10.762-6.957 1.0117-11.773 7.4688-10.762 14.43l6.168 42.379-43.73-5.7188c-6.9766-0.91406-13.363 3.9961-14.277 10.969z"/>
 <g clip-path="url(#a)">
  <path d="m297.73 179.14c-0.015625 5.8164 7.9531 13.051 11.711 14.98 0.14844 0.074218 0.30078 0.13672 0.44922 0.21094 0.875 2.5156 2.4883 4.5156 4.668 6.082-0.17578 0.41016-0.28516 0.85547-0.31641 1.3398-0.089844 1.4961 0.38281 2.832 1.2344 4.0273-3.5195 1.7656-5.5508 4.0703-2.4727 6.832 7.1992 6.4648 22.641 7.1758 31.75 7.2695 2.4609 0.027344 9.7695-0.24609 15.453-1.9453 2.4375 9.1602-6.5312 11.609-15.77 10.555-1.457-5.1523-11.695-6.668-17.141-6.418-0.46484 0.023437-4.0508 0.83594-3.1523 1.7852 3.7617 3.9492 9.5352 6.1445 15.539 6.9609-0.023438 0.80859-0.18359 1.6914-0.55078 2.6914-0.96875 2.6367-4.0625 6.168-7.2383 5.3828-4.0938-1.0117-2.6133-1.8125 0.36719-2.1953 1.9219-0.25 4.0664-2.2461 0.82422-1.8281-3.7617 0.48828-4.6719 0.015625-8.1172 1.6133-0.42578 0.19531-1.2266 0.62891-0.82812 1.1602 4.7617 6.3203 13.805 2.9141 18.008-2.3164 1.2344-1.5391 1.9492-2.9141 2.2656-4.1445 3.8711 0.070312 7.6523-0.38672 10.855-1.3086 6.9727-2.0039 10.156-7.9062 8.9805-13.617 2.2461-1.3047 3.6172-3.0625 3.2148-5.4414-0.15625-0.92188-0.62891-1.7734-1.2969-2.5586 7.0469-2.0508 13.551-4.9297 18.598-8.1719 2.2227-1.4297 4.2461-3.2109 5.8008-5.2227 3.7031-0.83984 7.0898-2.1016 9.7656-4.0117 9.9883-7.1289-2.7773-22.957-8.25-29.344-10.055-11.742-24.754-21.176-40.438-22.227-8.7188-0.58594-16.984 2.4922-23.117 8.1172-2.1641-0.22266-4.332-0.39453-6.5078-0.46484-8.7773-0.28516-18.172 0.98828-25.688 5.8008-6.6641 4.2695-9.9297 13.73-5.4453 20.656 1.6367 2.5234 4.043 4.375 6.8438 5.75zm40.805 48.219c-2.8594-0.78125-5.4922-1.8555-7.5234-3.1133 3.0039 0.375 5.9492 1.2617 7.5234 3.1133zm48.773-34.309c-5.0547 0.8125-10.781 1.4609-16.625 1.5625 4.0391-1.0938 8.0156-2.3867 11.859-3.9492 2.2148-0.89844 4.4648-1.9414 6.5898-3.1797-0.125 1.8672-0.80078 3.7656-1.8242 5.5664zm-23.836 12.891c-1.3516-0.90625-2.8359-1.6719-4.1328-2.3086 1.5352-0.23047 3.0117-0.46484 4.4297-0.70703 0.10937 1.0312 0.023437 2.043-0.29688 3.0156zm-50.016-13.621c-0.64063-2.4766-0.16406-5.5234 1.7305-9.2422 0.95312 0.082031 1.8789 0.15234 2.75 0.21484 1.0781 0.078125 2.1641 0.12109 3.25 0.16797-1.3125 1.1172-2.4961 2.3789-3.4844 3.832-1.3086 1.918-1.8008 4.0312-1.7344 6.1562-0.85547-0.33984-1.6953-0.71484-2.5117-1.1289zm70.762-13.309c2.7891 1.668 4.2461 3.7422 4.7422 5.9648-0.035156 0.027344-0.058594 0.054688-0.09375 0.082032-5.418 4.2969-12.648 6.3984-19.215 8.1367-1.4531 0.38672-2.9258 0.73828-4.4102 1.0703-1.0781-1.2812-2.3242-2.5234-3.6641-3.7031 9.5117-1.4609 17.484-5.4102 17.402-13.508 0.99609 0.21875 1.9844 0.45703 2.9688 0.71875 0.77734 0.39453 1.5352 0.80078 2.2695 1.2383zm-26.949-3.7383c0.83984 0.29687 1.668 0.625 2.4766 1.0078 1.0664 0.50781 2.5664-0.26562 0.45312 0.5625-2.5039 0.98438-5.1758 1.6016-7.7969 2.1719-2.4961 0.53906-5.0195 0.94531-7.5469 1.2891-2.3516-0.98047-4.7383-1.8945-7.1523-2.7344 4.3047-0.97656 8.5859-1.4492 11.707-1.7695 2.582-0.26562 5.2109-0.43359 7.8594-0.52734zm14.152 9.0117c-2.5195 3.2734-6.5391 4.7969-10.895 5.3828-4.5742-3.793-9.8594-6.7969-12.609-8.0352-0.035156-0.015624-0.066406-0.027343-0.10156-0.042968 1.9102-0.34766 3.8125-0.72266 5.6797-1.1602 3.8672-0.89844 7.6914-1.9727 11.285-3.6797 0.22266-0.10547 1.4219-0.77734 0.82422-1.1602-0.15234-0.09375-0.3125-0.17578-0.46484-0.26953 2.9766 0.12891 5.9414 0.40234 8.875 0.83594 0.16797 2.8672-0.76953 5.7617-2.5938 8.1289zm-42.449-3.7617c0.52344-0.25781 1.0547-0.50781 1.6016-0.73828 0.074219 0.53906 0.19531 1.0977 0.40234 1.6953-0.35156 0.015625-0.70312 0.027343-1.0625 0.039062-0.33203-0.32422-0.64062-0.65625-0.94141-0.99609zm6.4688-0.46875c0.23047 0.082031 0.46484 0.15625 0.69531 0.24219 0.66406 0.23828 1.3125 0.49609 1.9648 0.75-0.71875 0.058594-1.4336 0.11719-2.1562 0.16406-0.21094-0.40234-0.38281-0.78516-0.50391-1.1562zm-7.4688-0.75c-0.51562-0.68359-0.98828-1.3984-1.4141-2.1367 1.2656 0.37109 2.5234 0.76172 3.7773 1.1641-0.79688 0.29688-1.5859 0.625-2.3633 0.97266zm10.297 5.0547c-0.42188-0.45312-0.78125-0.89062-1.1172-1.3125 1.5195-0.14062 3.0352-0.30859 4.5469-0.50781 4.4453 1.9844 8.5898 4.3867 12.383 7.4023-2.9805-0.10547-5.8594-0.47656-8.2812-0.86719-0.80469-0.12891-1.5859-0.29297-2.3594-0.46875-1.8828-1.1992-3.6289-2.5938-5.1719-4.2461zm17.293 6.8086c0.99609 0.85156 1.957 1.7578 2.8984 2.707-3.4961-0.53906-6.8633-1.4141-9.9844-2.6875 2.3125 0.10156 4.707 0.10156 7.0859-0.019531zm5.3555-17.91c-1.1758-0.44922-2.3828-0.82812-3.6289-1.1406 3.6992 0.20312 7.5273 0.60937 11.293 1.3281-2.543-0.15234-5.1016-0.20703-7.6641-0.1875zm-9.6875 0.51172c-4.1484 0.41406-8.2578 1.082-12.258 2.0273-1.0742 0.25391-2.1758 0.53125-3.2812 0.83203 1.1602-1.9766 4.1328-3.1641 7.4688-3.8438 2.8477 0.17188 5.5898 0.52734 8.0703 0.98438zm-19.711 1.832c-1.6055-0.46875-3.2188-0.91797-4.8359-1.3242 2.6445-0.79297 5.5195-1.2617 8.4531-1.4766-1.5703 0.74219-2.8086 1.6641-3.6172 2.8008zm-7.6875 5.9102c-0.039063 0.027343-0.085938 0.050781-0.125 0.078125-2.4297-0.035156-4.9297-0.15625-7.4258-0.41797 1.2227-1.7852 2.8281-3.2344 4.7031-4.3984 0.75781 1.6836 1.6914 3.2812 2.8477 4.7383zm-2.9297 8.1641c0.49219-2.4648 1.7695-4.4766 3.5469-6.125 0.41406 0.003907 0.82812 0.015625 1.2422 0.015625 2.0781 2.0469 4.5859 3.75 7.5039 4.9492 1.1836 0.48828 2.7109 0.93359 4.4609 1.3203 5.6484 3.8047 13.465 5.2422 20.25 5.8477-6.0781 0.96875-12.293 1.4688-18.465 1.4023-0.41016-0.070313-0.82031-0.14844-1.2305-0.21484-1.5898-0.25391-6.2891-0.8125-11.109-0.71875-1.5273-0.22266-3.043-0.47266-4.5391-0.77344-0.55859-0.11328-1.1172-0.24219-1.6758-0.37891-0.32812-1.6289-0.36719-3.3945 0.015625-5.3242zm1.5586 9.3477c0.95312-0.23047 2.0117-0.39063 3.0664-0.49609 3.7305 0.40234 7.5156 0.51172 11.219 0.46484 3.9727 0.58203 8.4102 1.5938 12.547 3.0938-1.4883 0.074218-2.9883 0.12891-4.4883 0.16406-4.9727-0.98828-10.121-1.1836-14.531-0.63672-2.5312-0.32812-4.8906-0.79688-7.0117-1.4258-0.28516-0.37891-0.55078-0.76172-0.80078-1.1641zm36.234 8.9883c-1.8086-1.375-3.9141-2.5312-6.207-3.4766 0.64453-0.074218 1.2891-0.14453 1.9258-0.22656 1.9688 1.0312 3.7461 2.2148 5.2344 3.5547-0.32031 0.050781-0.63672 0.10156-0.95312 0.14844zm-13.676-2.8008c2.8438 0.79687 5.582 1.9062 7.957 3.3984-4.4844 0.29297-8.9297 0.18359-13.105-0.26562-3.543-0.37891-7.3828-1.4727-10.691-3.2773 4.9609 0.53125 10.414 0.49609 15.84 0.14453zm-22.832-0.027344c0.75391 0.62891 1.5352 1.1836 2.3359 1.6406 8.4609 4.8164 19.906 5.5273 31.121 3.793 0.35547 0.31641 0.70312 0.63672 1.0273 0.98047-6.875 2.2891-16.633 1.2188-22.688-0.23047-4.4766-1.0703-8.8477-3.0703-12.406-6.0078 0.20312-0.0625 0.40625-0.12109 0.60938-0.17578zm33.031-3.4922c-2.8828-1.2578-5.8867-2.2734-8.9414-3.0977 4.9375-0.32422 9.8984-0.92578 14.812-1.8203 0.96094 1.2695 1.7461 2.668 2.2227 4.0977-2.5273 0.30469-5.2578 0.58984-8.0938 0.82031zm14.465-30.352c-3.4766-0.60547-17.406-2.1133-27.684-0.46094-3.3828 0.16406-6.668 0.53906-9.6719 1.0078-2.2539 0.35156-4.8047 0.91016-7.3789 1.7305-1.6836-4.9609-1.5273-10.832 0.96875-17.273 1.0078-2.6055 2.2305-4.793 3.6172-6.6484 5.7656 0.94531 11.438 2.4805 16.719 4.2266 9.5664 3.1602 21.473 8.4023 26.512 17.762 0.035157 0.066406 0.054688 0.13672 0.089844 0.20312-1.1445-0.20312-2.2266-0.38281-3.1719-0.54688zm-56.98 9.3594c-3.5312-0.59375-6.9336-1.5625-9.9805-3.0391 0.027344-1.0234 0.27344-1.9727 0.85938-2.7617 2.4375-3.2969 12.727-0.27344 15.844 0.41016 0.25 0.054687 0.49609 0.125 0.74219 0.17969-2.8516 1.3359-5.4844 3.043-7.4648 5.2109zm-4.5742 7.9258c-1.5391-1.4492-3.6836-4.4219-4.7578-7.4219 2.5742 0.69531 5.2539 1.1484 7.8242 1.4648-1.2109 1.8711-1.9844 4.0039-2.0664 6.4648-0.007812 0.125 0.011719 0.23438 0.011719 0.35938-0.33984-0.28516-0.6875-0.5625-1.0117-0.86719zm8.4062 8.2188c0.007813 0.027344 0.015626 0.054688 0.023438 0.082031-0.046875-0.039062-0.09375-0.078125-0.14062-0.11328 0.039063 0.011719 0.078125 0.023438 0.11719 0.03125zm2.75 6.0586c0.28125 0.10547 0.58203 0.19141 0.875 0.28906 0.17188 0.19922 0.35938 0.37891 0.53906 0.57031-0.21094 0.066406-0.42188 0.13281-0.62891 0.19922-0.33984-0.375-0.60156-0.72656-0.78516-1.0586zm25.777 14.945c-5.5547-0.19531-11.094-1.168-16.496-2.4297-4.0352-0.94141-8.6641-2.1094-11.816-4.9375-1.2695-1.1406-0.96094-2.1719 0.21094-3.0742 5.0469 4.4805 15.715 6.4961 19.949 6.9766 5.4961 0.625 13.98 0.72656 20.918-1.4219 0.71094 0.95703 1.2969 2.0078 1.7539 3.1484-4.6055 1.6562-12.41 1.8125-14.52 1.7383zm16.93-6.5664c0.13281-0.070312 0.26562-0.14453 0.39453-0.21875 0.058594 0.097656 0.13672 0.18359 0.19531 0.28125 0.34375 0.58594 0.49609 1.1211 0.48047 1.6094-0.30078-0.57031-0.67188-1.125-1.0703-1.6719zm18.172-10.742c-3.7227 2.3945-7.9336 4.1953-12.371 5.5078 0.042969-0.070313 0.10156-0.13281 0.14062-0.20703 0.70312-1.2461 0.98047-2.5234 0.93359-3.8203 2.8047-0.53125 5.1602-1.0195 6.8867-1.3828 1.8516-0.39062 4.0352-2.5039 0.82422-1.8281-1.6641 0.35156-4.4648 0.85156-7.9883 1.3633-0.35547-1.3359-1.0156-2.668-1.8945-3.9805 5.6094 0.22656 12.383 0.35156 18.758-0.4375-1.5391 1.9062-3.4062 3.5781-5.2891 4.7852zm0.42969-44.527c6.125 5.1875 11.422 11.539 15.145 18.656 1.6562 3.168 3.0625 6.4688 3.6406 10.008 0.76953 4.7109-3.1406 6.5273-7.0859 7.4648 1.1797-2.3672 1.6758-4.9609 1.1484-7.6523 1.0391-0.89062 2.0039-1.8594 2.8516-2.9336 0.17969-0.22656 0.32812-0.42188 0.070313-0.66016-2.6367-2.4414-6.0664-3.9805-9.7422-5-2.4883-1.2969-5.418-2.2109-8.2969-2.8984-0.16406-0.56641-0.34375-1.1367-0.57031-1.7344-3.1797-8.2227-13.402-13.406-20.957-16.59-8.168-3.4492-16.777-5.8203-25.559-6.9766 12.77-13.367 36.613-2.4727 49.355 8.3164zm-72.398-6.293c5.957-1.2461 12.223-1.2266 18.434-0.4375-2.1016 2.293-3.8906 4.9258-5.2617 7.8438-2.4414 5.1914-2.9102 10.641-1.75 15.602-0.10938-0.019531-0.22266-0.046874-0.32812-0.066406-6.043-1.1367-15.012-2.332-19.898 2.5195-0.11328 0.10937-0.20312 0.22266-0.30078 0.33594-1.1211-0.8125-2.1719-1.7109-3.1094-2.7461-8.7734-9.6406 2.9727-21.113 12.215-23.051z"/>
 </g>
 <path d="m451.11 492.04h7.957v-16.066h22.465v-24.094h-22.465v-11.418h37.137v78.352h7.9609l-0.003906-86.309h-53.051v19.375h-22.457v24.094h22.457z"/>
 <path d="m515.42 598.87v-63.355h-61.746v-8.2266h-10.176c-0.44531-2.5977-1.1133-5.1172-2.0039-7.5312l8.8008-5.082-7.168-12.422-8.8125 5.0859c-1.6641-2-3.5078-3.8438-5.5117-5.5117l5.0859-8.8125-12.418-7.1719-5.082 8.8008c-2.4141-0.89453-4.9336-1.5625-7.5312-2.0039v-10.176h-14.344v10.176c-2.5977 0.44141-5.1172 1.1133-7.5312 2.0039l-5.082-8.8008-12.422 7.1719 5.0859 8.8125c-2 1.6641-3.8477 3.5117-5.5117 5.5117l-8.8086-5.0859-7.1719 12.418 8.8047 5.082c-0.89453 2.4141-1.5625 4.9336-2.0078 7.5352h-10.176v8.2266h-25.766v63.355h-15.25v11.137h217.76v-11.137zm-128.98-64.414c0-8.4141 6.8242-15.234 15.238-15.234 8.4141 0 15.238 6.8203 15.238 15.234 0 0.35547-0.03125 0.70703-0.050781 1.0547h-30.375c-0.023438-0.34766-0.050782-0.69531-0.050782-1.0547z"/>
 <path d="m389.16 459.16-10.906-39.094-11.207 10.844-11.672-27.781-6.0156 3.0469 16.426 32.719 9.3867-10.449 12.578 31.348z"/>
 <path d="m401.27 458.39 8.4375-33.285-12.797 3.2539 3.1133-25.301-5.6992-0.29688-1.6914 30.93 11.281-3.7266-3.9375 28.301z"/>
 <path d="m352.73 457.09-18.742-16.691-3.4375 4.4492 24.094 18.699 3.3125-11.223 20.703 19.047 0.82812-0.97266-22.223-25.48z"/>
</svg>
